<svg xmlns="http://www.w3.org/2000/svg" version="1.1" xmlns:xlink="http://www.w3.org/1999/xlink" width="1000" height="1000"><g clip-path="url(#SvgjsClipPath1386)"><rect width="1000" height="1000" fill="#1d2d44"></rect><g transform="matrix(1.2345679012345678,0,0,1.2345679012345678,0,0)"><svg xmlns="http://www.w3.org/2000/svg" version="1.1" xmlns:xlink="http://www.w3.org/1999/xlink" width="810" height="810"><svg version="1.1" style="display: block;" viewBox="0 0 2048 2048" width="810" height="810" preserveAspectRatio="none" id="svg62" sodipodi:docname="beacon_mipmap.svg" inkscape:version="1.4.2 (ebf0e940, 2025-05-08)" xmlns:inkscape="http://www.inkscape.org/namespaces/inkscape" xmlns:sodipodi="http://sodipodi.sourceforge.net/DTD/sodipodi-0.dtd" xmlns="http://www.w3.org/2000/svg" xmlns:svg="http://www.w3.org/2000/svg">
  <defs id="defs62"><clipPath id="SvgjsClipPath1386"><rect width="1000" height="1000" x="0" y="0" rx="350" ry="350"></rect></clipPath></defs>
  <sodipodi:namedview id="namedview62" pagecolor="#ffffff" bordercolor="#000000" borderopacity="0.25" inkscape:showpageshadow="2" inkscape:pageopacity="0.0" inkscape:pagecheckerboard="0" inkscape:deskcolor="#d1d1d1" inkscape:zoom="0.5220613" inkscape:cx="773.85548" inkscape:cy="422.36419" inkscape:window-width="1440" inkscape:window-height="766" inkscape:window-x="0" inkscape:window-y="25" inkscape:window-maximized="1" inkscape:current-layer="svg62"></sodipodi:namedview>
  <path fill="rgb(254,254,254)" d="M 0 0 L 2048 0 L 2048 2048 L 0 2048 L 0 0 z" id="path1" style="fill:#1d2d44;fill-opacity:1" transform="translate(0,0)"></path>
  <g id="g65" transform="matrix(1.3520451,0,0,1.3520451,-356.14465,-184.03607)">
    <path fill="#fefefe" d="m 956.154,634.73 c 20.932,-1.879 42.814,-0.614 63.846,-0.649 36.26,-0.328 72.53,-0.415 108.8,-0.261 3.77,19.818 4.81,40.705 6.81,60.788 3.55,49.043 7.98,98.018 13.3,146.901 2.25,21.586 3.21,44.477 7.14,65.759 7.28,97.272 17.85,194.472 26.52,291.662 3.43,38.48 8.08,77.31 9.75,115.88 l -117.15,0.02 c -0.09,-16.63 -0.08,-33.26 0.05,-49.89 0.05,-11.35 1.2,-24.04 -1.27,-35.15 -1.46,-6.62 -4.66,-13.01 -9.43,-17.86 -6.17,-6.28 -14.31,-9.09 -23.03,-9 -8.18,0.08 -15.9,2.78 -21.71,8.66 -4.75,4.8 -7.65,10.99 -9.01,17.56 -3.49,16.87 -0.59,65.24 -0.84,85.58 l -117.111,0.13 c 4.027,-47.1 9.88,-94.53 11.624,-141.76 3.841,-15 4.735,-48.21 6.592,-65.42 4.857,-44.44 9.15,-88.95 12.876,-133.502 1.835,-21.592 4.495,-43.429 5.109,-65.08 5.563,-27.172 6.116,-56.816 8.711,-84.558 5.91,-63.199 10.778,-126.804 18.423,-189.81 z" id="path4"></path>
    <path fill="#1d2d44" d="m 1154.76,1000.07 1.6,-0.148 c 4.83,4.178 7.85,72.468 9.74,84.418 -28.6,13.16 -58.49,24.24 -87.61,36.2 l -159.158,65.42 -8.547,3.39 c 0.411,-30.62 4.834,-61.92 7.765,-92.42 12.406,-5.62 25.382,-10.29 37.97,-15.53 l 91.17,-37.72 c 35.55,-14.57 70.84,-30.84 107.07,-43.61 z" id="path5"></path>
    <path fill="#fefefe" d="m 1037.37,1060.91 c 0.96,-0.06 1.93,-0.14 2.9,-0.13 4.57,0.01 8.91,1.37 11.99,4.87 5.05,5.74 3.35,41.64 2.49,50.3 -2.38,1.9 -4.28,1.55 -7.26,1.78 -6.3,-0.11 -12.61,-0.43 -18.91,-0.66 -0.48,-13.62 -2.54,-29.86 -0.15,-43.21 1.24,-6.89 3.21,-9.05 8.94,-12.95 z" id="path6"></path>
    <path fill="#1d2d44" d="m 1138.75,805.061 c 2.69,8.248 2.62,19.079 3.51,27.741 2.07,18.557 3.8,37.151 5.2,55.771 -19.84,9.101 -40.33,17.066 -60.44,25.554 -49.89,21.287 -100.167,41.642 -150.811,61.054 -2.13,0.805 -3.556,1.224 -5.841,1.15 -0.245,-12.938 2.205,-26.741 3.469,-39.654 1.577,-16.118 2.377,-32.379 4.47,-48.428 33.417,-13.519 66.723,-27.31 99.913,-41.372 33.64,-13.632 67.15,-27.571 100.53,-41.816 z" id="path7"></path>
    <path fill="#fefefe" d="m 1038.95,865.903 c 1.94,10e-4 3.68,0.065 5.6,0.408 3.25,0.58 6.29,2.675 8.04,5.464 6.25,9.984 4.49,38.728 2.23,50.024 -2.81,1.504 -5.72,1.202 -8.85,1.321 l -17.16,0.03 c -0.21,-13.911 -2.89,-34.16 0.89,-47.127 1.55,-5.324 4.6,-7.471 9.25,-10.12 z" id="path8"></path>
    <path fill="#1d2d44" d="m 1071.62,640.112 c 17.18,-0.722 34.63,-0.14 51.84,-0.193 1.49,18.658 3.85,37.309 5.85,55.923 -22.51,11.023 -46.76,19.924 -69.98,29.431 -4.75,-4.78 -9.09,-8.196 -16.1,-8.629 -4.66,-0.288 -8.95,1.193 -12.42,4.319 -5.81,5.24 -6.88,11.201 -7.04,18.691 -8.56,4.076 -17.32,7.629 -26.085,11.224 -16.207,6.748 -32.454,13.397 -48.742,19.947 2.978,-27.641 7.11,-55.831 8.303,-83.58 19.581,-7.816 39.094,-15.8 58.534,-23.953 18.44,-7.925 36.8,-16.832 55.84,-23.18 z" id="path9"></path>
    <path fill="#1d2d44" d="m 1038.73,723.93 c 4.16,-0.105 8.58,-0.133 12.06,2.464 3.43,2.56 3.82,6.584 4.3,10.56 0.82,6.705 2.18,38.78 -1.07,42.922 l -3.77,0.149 -19.94,0.002 c 0.11,-14.05 -1.44,-29.317 0.69,-43.164 0.98,-6.337 2.62,-9.128 7.73,-12.933 z" id="path10"></path>
    <path fill="#de3534" d="m 835.225,886.496 c 14.816,30.289 29.705,60.833 43.327,91.674 15.457,-21.558 32.04,-50.762 50.468,-69.072 -0.614,21.651 -3.274,43.488 -5.109,65.08 -3.726,44.552 -8.019,89.062 -12.876,133.502 -1.857,17.21 -2.751,50.42 -6.592,65.42 -9.378,4.85 -18.746,13.52 -27.301,19.9 -18.447,13.76 -36.928,27.6 -56.33,40 0.146,-24.2 3.454,-48.61 4.273,-72.87 -17.801,16.65 -34.166,35.64 -50.946,53.38 -39.505,41.76 -78.469,84.21 -118.515,125.43 -1.893,-20.05 -4.061,-40.06 -6.506,-60.05 -41.564,35.07 -83.494,69.7 -125.783,103.88 -36.985,29.92 -74.605,59.28 -110.319,90.72 8.02,-16.59 20.704,-32.66 30.878,-48.15 23.82,-36.26 47.886,-72.35 72.196,-108.28 30.368,-45.44 60.392,-91.11 90.07,-137 20.788,-32.11 40.996,-64.65 62.754,-96.12 -0.816,29.42 0.356,59.18 0.491,88.64 16.581,-25.86 30.883,-53.26 45.906,-80.04 25.403,-44.72 51.034,-89.3 76.893,-133.754 14.095,-24.11 27.614,-49.006 43.021,-72.29 z" id="path11"></path>
    <path fill="#de3534" d="m 1337.75,583.202 c 31.24,10.371 62.55,20.532 93.93,30.481 16.68,5.315 33.64,11.493 50.65,15.589 -23.03,35.611 -46.27,71.081 -69.74,106.41 -13.42,20.55 -26.18,42.309 -40.94,61.879 -1.88,-27.631 -1.07,-55.582 -4.03,-83.114 -8.32,11.355 -15.05,23.943 -22.15,36.083 -10.87,18.488 -21.6,37.053 -32.2,55.696 -35.51,62.806 -69.93,126.675 -108.22,187.836 -10.06,-17.953 -19.03,-36.571 -28.36,-54.918 -4.53,-8.912 -8.7,-18.667 -14.41,-26.87 -1.75,-2.511 -2.8,-3.915 -5.77,-4.942 -0.15,-0.051 -0.31,-0.043 -0.46,-0.064 -3.93,-21.282 -4.89,-44.173 -7.14,-65.759 -5.32,-48.883 -9.75,-97.858 -13.3,-146.901 28.26,-18.566 56.16,-37.665 83.7,-57.286 -1.32,24.236 -3.86,48.328 -5.41,72.539 28.02,-27.907 55.8,-56.052 83.34,-84.43 13.56,-13.916 27.69,-27.635 40.51,-42.229 z" id="path12"></path>
    <path fill="#fefefe" d="m 1042.18,313.486 1.77,1.076 c 3.91,8.09 1.86,32.127 1.89,41.676 3.2,1.651 6.58,3.491 8.56,6.627 4.68,7.392 -1.71,14.474 -3.47,21.702 0.7,2.589 0.67,3.503 3.12,4.973 6.72,4.029 20.7,4.013 33.2,12.236 14.49,9.523 23.37,23.862 26.88,40.609 l 12.39,0.859 c 0.01,5.807 1.17,12.987 -1.31,18.268 -2.77,2.261 -4.71,2.073 -8.21,2.556 0.1,21.412 -1.33,43.687 0.19,64.993 l 3,1.816 c 1.32,5.281 0.49,11.337 0.3,16.753 l 29.04,0.308 c 0.27,9.705 -1.45,44.06 1.13,50.922 l 4.31,0.425 c 3.28,3.983 1.52,14.772 1.33,19.815 l -112.76,0.242 -113.525,-0.124 c -0.246,-6.648 -1.306,-12.818 2.43,-18.678 0.453,-0.225 2.25,-1.086 2.589,-1.387 3.255,-2.89 1.761,-45.047 1.746,-51.434 9.377,0.2 18.758,0.12 28.131,-0.238 -0.079,-4.426 -1.229,-12.563 0.212,-16.647 0.517,-1.465 1.882,-1.408 3.228,-1.877 2.336,-3.936 0.924,-57.595 0.934,-66.375 l -10.369,-1.72 0.039,-18.301 12.701,-0.726 c 6.513,-24.781 22.234,-42.143 47.314,-48.7 4.3,-1.123 11.69,-1.801 15.04,-4.765 5.75,-5.079 -3.82,-14.678 -2.29,-21.626 1.14,-5.21 5.05,-7.459 9.26,-10.071 -0.11,-13.548 -1.78,-30.042 1.2,-43.187 z" id="path13"></path>
    <path fill="#1d2d44" d="m 945.024,557.132 c 65.516,-0.27 131.036,-0.168 196.556,0.306 l 0.06,42.203 c -65.43,1.298 -131.13,0.429 -196.582,0.224 z" id="path14"></path>
    <path fill="#fefefe" d="m 1047.93,564.945 c 9.06,-0.167 18.15,0.045 27.21,0.101 l -0.01,27.534 -27.3,-0.001 z" id="path15"></path>
    <path fill="#fefefe" d="m 1012.29,564.692 c 8.88,-0.17 17.78,0.072 26.67,0.171 l -0.06,27.747 -26.12,-0.288 z" id="path16"></path>
    <path fill="#fefefe" d="m 978.919,564.904 c 8.301,-0.254 16.655,0.003 24.961,0.064 l -0.02,27.578 c -8.262,0.164 -16.56,-0.073 -24.824,-0.144 z" id="path17"></path>
    <path fill="#fefefe" d="m 1084.29,565.058 24.3,0.045 c 0.16,9.119 0.1,18.24 -0.18,27.356 -7.97,0.369 -15.99,0.003 -23.96,-0.172 z" id="path18"></path>
    <path fill="#fefefe" d="m 961.271,564.988 c 2.622,-0.137 4.858,-0.517 7.204,0.913 3.839,6.863 1.554,19.289 1.521,27.125 -2.346,0.056 -4.544,0.362 -6.66,-0.836 -4.179,-6.911 -1.97,-19.163 -2.065,-27.202 z" id="path19"></path>
    <path fill="#fefefe" d="m 1116.96,564.866 c 2.53,-0.077 4.26,-0.19 6.67,0.75 3.94,5.783 1.49,20.021 1.49,27.149 -2.33,0.125 -3.99,0.182 -6.22,-0.579 -2.2,-3.161 -2.47,-7.358 -2.22,-11.102 0.36,-5.399 0.27,-10.808 0.28,-16.218 z" id="path20"></path>
    <path fill="#1d2d44" d="m 1004.61,464.678 76.24,0.107 c -0.67,21.421 -0.05,43.085 -0.01,64.529 -25.37,0.029 -50.73,-0.082 -76.1,-0.334 0.78,-21.359 0.08,-42.926 -0.13,-64.302 z" id="path21"></path>
    <path fill="#fefefe" d="m 1037.39,473.378 c 8.52,-1.62 17.26,1.484 22.85,8.12 5.59,6.637 7.16,15.774 4.12,23.9 -3.05,8.126 -10.24,13.977 -18.81,15.306 -12.95,2.006 -25.12,-6.738 -27.35,-19.651 -2.22,-12.913 6.31,-25.227 19.19,-27.675 z" id="path22"></path>
    <path fill="#1d2d44" d="m 1091.46,464.883 16.84,-0.315 c 0.32,21.619 0.41,43.241 0.27,64.862 -5.66,0.072 -11.33,-0.192 -16.99,-0.353 1.7,-20.517 1.37,-43.642 -0.12,-64.194 z" id="path23"></path>
    <path fill="#1d2d44" d="m 977.901,464.3 16.273,0.044 c -0.556,11.377 -3.205,57.564 1.789,64.541 L 978.02,528.86 Z" id="path24"></path>
    <path fill="#fefefe" d="m 862.819,1329.35 c 49.648,-1.3 99.564,-0.13 149.241,-0.16 69.65,-0.04 139.38,-0.85 209.02,0.05 3.37,7.16 6.8,14.29 10.27,21.39 7.74,-3.99 18.86,-8.59 27.65,-8.77 11.01,-0.23 23.72,3.74 34.54,6 l 53.46,11.13 c 34.28,7.01 69.47,12.14 103.44,20.31 -24.47,1.08 -49.56,-0.34 -74.09,-0.37 l -152.85,0.1 -360.12,0.06 c -75.273,0.02 -150.678,0.96 -225.927,-0.64 12.75,-3.08 25.889,-5.02 38.775,-7.53 30.877,-6.11 61.788,-12.05 92.734,-17.8 16.65,-3.25 41.82,-11.45 58.151,-11.34 8.983,0.06 18.71,5.21 26.932,8.62 3.241,-6.84 5.909,-14.04 8.774,-21.05 z" id="path25"></path>
    <path fill="#de3534" d="m 1406.16,582.816 c 13.79,-12.873 29.32,-24.437 44.22,-36.024 l 61.67,-48.005 74.19,-57.861 c 14.04,-11.076 27.68,-23.195 42.31,-33.453 -30.61,49.493 -64.21,97.68 -96.49,146.11 -11.38,17.075 -23.62,33.972 -34.22,51.525 -30.63,-6.859 -61.41,-14.016 -91.68,-22.292 z" id="path36"></path>
    <path fill="#fefefe" d="m 1140.1,519.439 c 26.88,5.195 53.62,12.036 80.26,18.404 l 129.2,31.06 c 10.44,-9.879 19.55,-20.983 29.87,-30.923 1.44,13.229 4.43,26.431 5.56,39.624 7,2.052 14.04,3.655 21.17,5.212 30.27,8.276 61.05,15.433 91.68,22.292 3.2,0.837 4.94,0.702 7,3.37 0.97,8.839 -3.07,17.56 -4.67,26.226 -5.92,-1.764 -12.04,-3.321 -17.84,-5.432 -17.01,-4.096 -33.97,-10.274 -50.65,-15.589 -31.38,-9.949 -62.69,-20.11 -93.93,-30.481 l -121.16,-38.776 c -25.44,-7.973 -51.73,-15.086 -76.49,-24.987 z" id="path57"></path>
    <path fill="#de3534" d="m 1349.56,568.903 c 10.44,-9.879 19.55,-20.983 29.87,-30.923 1.44,13.229 4.43,26.431 5.56,39.624 -11.83,-2.797 -23.65,-5.698 -35.43,-8.701 z" id="path58"></path>
    <path fill="#fefefe" d="m 1498.93,362.196 1.42,0.931 c 3.09,8.408 4.35,17.899 6.15,26.683 l -195.75,47.268 c -52.38,12.059 -104.67,24.471 -156.89,37.237 -2.07,0.345 -4.15,0.552 -6.23,0.776 3.4,-3.395 319.64,-104.772 351.3,-112.895 z" id="path59"></path>
    <path fill="#fefefe" d="m 585.512,362.799 c 20.856,5.86 41.461,12.814 62.17,19.184 l 161.441,50.751 81.477,26.007 c 15.676,5.001 32.371,9.301 47.42,15.891 l 0.294,0.88 -3.543,-0.524 C 915.219,471.2 895.863,465.799 876.488,461.169 L 766.934,435.275 652.52,408.453 c -24.577,-5.763 -49.377,-11.123 -73.661,-18.024 2.569,-9.189 4.778,-18.272 6.653,-27.63 z" id="path60"></path>
    <path fill="#fefefe" d="m 936.39,521.404 1.31,0.029 -0.167,0.573 c -15.127,6.314 -31.732,10.533 -47.359,15.531 l -86.527,27.821 c -44.433,14.432 -88.94,28.635 -133.52,42.609 -27.28,8.61 -54.467,17.813 -82.129,25.119 l -1.835,-1.316 c -2.345,-8.44 -5.123,-16.755 -7.813,-25.089 L 833.941,545.41 c 34.102,-8.112 68.171,-16.686 102.449,-24.006 z" id="path61"></path>
  </g>
  <rect style="fill:none;stroke-width:2.5284" id="rect62" width="837.41852" height="837.41852" x="3105.981" y="389.90915"></rect>
  <rect style="fill:none;stroke-width:2.5284" id="rect63" width="412.06308" height="412.06308" x="3907.9531" y="926.0343"></rect>
  <rect style="fill:none;stroke-width:2.5284" id="rect64" width="124.06201" height="372.18604" x="2968.6267" y="296.86267"></rect>
</svg></svg></g></g></svg>